<svg xmlns="http://www.w3.org/2000/svg" width="341.981" height="137.465" viewBox="0 0 341.981 137.465"><defs><style>.a{fill:#9db0f4;opacity:0.3;}.b{fill:#2c3a64;}.c{fill:#233862;}.d{fill:#699ff0;}.e{fill:#4aa84f;}.f{fill:#227626;}.f,.j{opacity:0.5;}.g{fill:#afcdfb;}.h{fill:#739af0;}.i{fill:#2b478b;}.j{fill:#fff;}.k{fill:#cae0ff;}.l{fill:#2e3552;}.m{fill:#2a4e96;}.n{fill:#c0daff;}.o{fill:#e1e7fc;}.p{fill:#015694;}.q{fill:#084776;}.r{fill:#b6a4c1;}.s{fill:#baadad;}.t{fill:#4c253b;}.u{fill:#ebe6e2;}.v{fill:#433a49;opacity:0.21;}.w{fill:#dcc7e6;}.x{fill:#702e1c;}.y,.z{fill:#4c1c11;}.y{opacity:0.35;}.aa{fill:#d66d5c;}.ab{fill:#b2483d;}.ac{fill:#ed8772;}.ad{fill:#053050;}.ae{fill:#c4b3ce;}</style></defs><g transform="translate(-789.019 -500.509)"><g transform="translate(677.942 35.266)"><path class="a" d="M475.629,567.9q-.648,1.96-1.484,3.857c-.111.251-.223.5-.341.751a40.781,40.781,0,0,1-5.382,8.62c-.022.029-308.316.184-308.316.184s-.093.056-.223-.184c-2.469-4.527-26.256-50.217,4.06-77.021,27.414-24.24,27.592-.167,60.943-30.76,11.731-10.761,32.45-9.536,48.715,4.243,14.747,12.494,37.085,2.646,50.344-2.608,16.092-6.376,38.807-12.7,61.959-8.257,26.757,5.129,22.248,40.66,41.965,35.246,21.447-5.89,39.758,10.522,46.931,31.464q.2.592.394,1.19.531,1.66.969,3.353.16.62.307,1.244A53.04,53.04,0,0,1,475.629,567.9Z" transform="translate(-33.332 0)"/><rect class="b" width="1.049" height="5.772" transform="translate(281.261 569.856)"/><rect class="b" width="1.049" height="5.772" transform="translate(283.621 569.856)"/><g transform="translate(181.615 569.482)"><path class="c" d="M732.2,1389.616l-.269-.324c.02-.017,2.012-1.7,1.545-3.151-.513-1.6-.93-3.322-.935-3.339l.409-.1c0,.017.418,1.727.926,3.308C734.427,1387.736,732.288,1389.54,732.2,1389.616Z" transform="translate(-731.927 -1382.704)"/></g><path class="d" d="M1596.1,1344.837h-9.034l-.039-5.489,9.058-.191Z" transform="translate(-1308.256 -774.623)"/><path class="e" d="M2425.864,589.082l-8.84,47.1-.422-.011-45.723-1.163s20.517-6.359,22.451-9.079c1.823-2.564,20.871-32.729,26.94-36.34a2.147,2.147,0,0,1,.964-.352Z" transform="translate(-2003.053 -109.768)"/><path class="f" d="M2416.6,640.106l-45.723-1.163s20.517-6.359,22.451-9.079c1.823-2.564,20.871-32.729,26.94-36.339-4.846,8.713-16.012,29.608-14.912,35.266C2406.407,634.181,2413.229,638.347,2416.6,640.106Z" transform="translate(-2003.053 -113.706)"/><path class="g" d="M642.766,996.924c-.054.06-.111.119-.169.176a4.88,4.88,0,0,1-.364.328h0v0c-.063.051-.129.1-.2.151s-.136.1-.207.144h0c-.07.045-.142.089-.217.133s-.151.085-.229.126h0c-.076.04-.157.078-.237.114h0l-.07.031h0l-.075.034s0,0,0,0v0l-.079.034h0l-.084.037h0l-.088.038h0v0l-.092.04h0v0l-.1.042-.1.044h0v0l-.106.045c-.037.016-.073.031-.11.048l-.232.1h0l-.12.051h0l-.126.053-.091.04c-.331.142-.7.3-1.105.472l-.229.1c-1.06.449-2.35.985-3.831,1.592l-.466.191-.793.324-.176.07-.249.1-.252.1-.255.1-.258.1-.261.106-.264.106-.265.107s0,0,0,0l-.268.107c-.065.026-.129.051-.193.079-.026.009-.051.019-.078.031h0l-.273.109q-.69.277-1.41.563l-.84.334-.736.29-.56.221c-.73.286-1.481.581-2.247.878l-.465.182-.806.311-.739.286-.828.318c-9.2,3.53-20.382,7.57-30.8,10.725l-1.094.328-.544.161c-.363.108-.724.214-1.085.318q-1.621.473-3.206.909c-.352.1-.7.192-1.05.286l-.522.141c-.346.092-.692.183-1.035.273s-.683.177-1.023.262-.676.17-1.012.254-.668.164-1,.243l-.985.233c-.327.075-.651.149-.972.221l-.479.107q-.956.211-1.882.4c-.154.032-.306.063-.46.092-.3.06-.607.119-.907.174q-.9.169-1.761.311-.646.108-1.271.2-.418.061-.822.114-.609.081-1.195.145-.781.086-1.514.141c-.245.019-.487.034-.723.047-.119.007-.236.013-.353.018-.233.01-.462.019-.686.023l-.251.006h-.062c-.054,0-.108,0-.164,0l-.671.015-.192,0-.242,0-.381.009-.208,0-.213,0-.438.009-.457.01-.236,0-.6.012c-.094,0-.189,0-.286.006l-.622.013-.271.006-.8.016-2.417.048-.318.006-.648.013-1,.02-.413.007-.976.019-.358.007-.688.013-.754.015-.4.007-.38.007-.607.012-3.666.07c-.183,0-.368.006-.554.01l-.853.016-2.026.038-.16,0-1.806.034h-.086l-11.688.213c-.21,0-.419.006-.63.01l-2.539.045-1.614.028h-.089l-1.86.032c-.076,0-.154,0-.232,0q-1.647.027-3.331.057l-.863.015-.262,0-2.97.05-1.307.022q-.433.007-.869.015l-1.771.029-2.668.044c-.081,0-.161,0-.24,0-.368,0-.736.012-1.105.018H507.1l-3.311.053H503.7l-2.306.038-1.486.023-.925.016-3.873.06h-.034l-6.479.1-.891.013h-.063l-2.857.042-.883.012-2.461.037-5.008.069-3.162.044q-.994.011-1.985.026l-4.719.062-.224,0-2.949.037-4.179.05-1.667.021-.506.006-3.345.038-.49.006-2.274.024c-3.2.034-6.347.066-9.419.094l-1.108.01-.674.006-.9.007-1.783.015c-11.455.094-21.676.129-29.576.084q-1.207-.006-2.341-.016c-1.875-.016-3.6-.038-5.142-.066-4.382-.076-7.374-.2-8.574-.386-6.481-.991-17.437-4.176-24.324-7.917-4.153-2.257-6.825-4.717-6.142-7.019.871-2.93,3.184-4.87,5.606-6.367,2.1-1.3,4.28-2.266,5.672-3.259.081-.059.16-.114.234-.173a5.009,5.009,0,0,0,.666-.6c.031-.035.062-.066.1-.108a36.688,36.688,0,0,1,2.653-2.7,35.222,35.222,0,0,1,3.091-2.511l.019-.013c5.342-3.855,14.474-8.269,29-8.611,0,0,28.439-.473,63.933-.959h0l10.8-.147h0l3.671-.048h0l5.556-.072h0q4.653-.06,9.357-.117.941-.011,1.885-.023,1.88-.022,3.763-.045l7.539-.088,3.754-.042c17.386-.194,34.383-.35,48.887-.425h0l1.7-.009c6.325-.029,12.145-.042,17.28-.037,2.457,0,4.757.013,6.88.025,7.686.048,13.055.163,15.165.365,5.481.525,11.59.921,17.16,1.209.459.025.915.048,1.365.07l.069,0q1.036.053,2.037.1l.062,0q1.159.055,2.262.1c1.074.045,2.106.088,3.081.126l1.233.047c4.8.179,8,.251,8,.251s.026.082.073.236c0,.013.007.026.012.041l.04.136c.028.1.06.217.1.349.045.174.1.377.151.6,0,0,0,0,0,0q.02.083.039.172h0c.044.188.089.39.135.605.032.151.063.308.094.469.016.089.034.179.05.271s.037.2.053.3c.025.147.048.3.072.449.009.062.018.123.026.186.015.108.029.218.044.328.007.057.015.114.021.171.013.111.026.223.038.336.006.057.012.114.018.173.01.114.021.23.029.346C644.61,992.338,644.371,995.158,642.766,996.924Z" transform="translate(-221.389 -458.371)"/><path class="h" d="M2654.474,1028.075c-1.491.678-5.963,2.572-12.112,5.017a20.236,20.236,0,0,0-10.119-11.681l24.926-5.228C2657.888,1019.265,2658.9,1026.066,2654.474,1028.075Z" transform="translate(-2234.722 -488.344)"/><g transform="translate(187.293 535.79)"><path class="d" d="M1620.381,1091.338h0a1.6,1.6,0,0,1-1.517-1.677l-.009-1.791a1.621,1.621,0,0,1,1.5-1.705h0a1.6,1.6,0,0,1,1.517,1.677l.009,1.79A1.621,1.621,0,0,1,1620.381,1091.338Z" transform="translate(-1523.764 -1086.166)"/><path class="d" d="M1551.891,1091.978h0a1.6,1.6,0,0,1-1.517-1.677l-.009-1.791a1.62,1.62,0,0,1,1.5-1.705h0a1.6,1.6,0,0,1,1.517,1.677l.009,1.791A1.621,1.621,0,0,1,1551.891,1091.978Z" transform="translate(-1463.056 -1086.732)"/><path class="d" d="M1483.4,1092.615h0a1.6,1.6,0,0,1-1.517-1.677l-.009-1.791a1.621,1.621,0,0,1,1.5-1.705h0a1.6,1.6,0,0,1,1.517,1.677l.009,1.791A1.621,1.621,0,0,1,1483.4,1092.615Z" transform="translate(-1402.347 -1087.297)"/><path class="d" d="M1414.911,1093.254h0a1.6,1.6,0,0,1-1.517-1.677l-.009-1.791a1.621,1.621,0,0,1,1.5-1.705h0a1.6,1.6,0,0,1,1.517,1.677l.009,1.791A1.62,1.62,0,0,1,1414.911,1093.254Z" transform="translate(-1341.639 -1087.864)"/><path class="d" d="M1346.421,1093.892h0a1.6,1.6,0,0,1-1.517-1.677l-.009-1.791a1.621,1.621,0,0,1,1.5-1.705h0a1.6,1.6,0,0,1,1.517,1.677l.009,1.791A1.621,1.621,0,0,1,1346.421,1093.892Z" transform="translate(-1280.93 -1088.429)"/><path class="d" d="M1277.93,1094.531h0a1.6,1.6,0,0,1-1.517-1.677l-.009-1.791a1.621,1.621,0,0,1,1.5-1.705h0a1.6,1.6,0,0,1,1.517,1.677l.009,1.791A1.621,1.621,0,0,1,1277.93,1094.531Z" transform="translate(-1220.221 -1088.995)"/><path class="d" d="M1209.44,1095.169h0a1.6,1.6,0,0,1-1.517-1.677l-.009-1.791a1.62,1.62,0,0,1,1.5-1.705h0a1.6,1.6,0,0,1,1.517,1.677l.009,1.791A1.621,1.621,0,0,1,1209.44,1095.169Z" transform="translate(-1159.512 -1089.561)"/><path class="d" d="M1140.949,1095.808h0a1.6,1.6,0,0,1-1.517-1.677l-.009-1.791a1.621,1.621,0,0,1,1.5-1.705h0a1.6,1.6,0,0,1,1.517,1.677l.009,1.791A1.621,1.621,0,0,1,1140.949,1095.808Z" transform="translate(-1098.803 -1090.128)"/><path class="d" d="M1072.459,1096.447h0a1.6,1.6,0,0,1-1.517-1.677l-.009-1.791a1.621,1.621,0,0,1,1.5-1.705h0a1.6,1.6,0,0,1,1.517,1.677l.009,1.791A1.621,1.621,0,0,1,1072.459,1096.447Z" transform="translate(-1038.095 -1090.693)"/><path class="d" d="M1005.336,1097.073h0a1.6,1.6,0,0,1-1.517-1.677l-.009-1.791a1.621,1.621,0,0,1,1.5-1.705h0a1.6,1.6,0,0,1,1.517,1.677l.009,1.791A1.621,1.621,0,0,1,1005.336,1097.073Z" transform="translate(-978.598 -1091.248)"/><path class="d" d="M936.845,1097.711h0a1.6,1.6,0,0,1-1.517-1.677l-.009-1.791a1.62,1.62,0,0,1,1.5-1.705h0a1.6,1.6,0,0,1,1.517,1.677l.009,1.791A1.621,1.621,0,0,1,936.845,1097.711Z" transform="translate(-917.888 -1091.815)"/><path class="d" d="M868.355,1098.35h0a1.6,1.6,0,0,1-1.517-1.677l-.009-1.791a1.621,1.621,0,0,1,1.5-1.705h0a1.6,1.6,0,0,1,1.517,1.677l.009,1.791A1.621,1.621,0,0,1,868.355,1098.35Z" transform="translate(-857.18 -1092.381)"/><path class="d" d="M783.431,1098.35h0a1.6,1.6,0,0,1-1.517-1.677l-.009-1.791a1.621,1.621,0,0,1,1.5-1.705h0a1.6,1.6,0,0,1,1.517,1.677l.009,1.791A1.621,1.621,0,0,1,783.431,1098.35Z" transform="translate(-781.905 -1092.381)"/></g><g transform="translate(351.81 535.898)"><path class="d" d="M2368.427,1092.289h0a1.6,1.6,0,0,1-1.517-1.677l-.009-1.791a1.621,1.621,0,0,1,1.5-1.705h0a1.6,1.6,0,0,1,1.517,1.677l.009,1.791A1.62,1.62,0,0,1,2368.427,1092.289Z" transform="translate(-2351.338 -1087.117)"/><path class="d" d="M2299.937,1092.928h0a1.6,1.6,0,0,1-1.517-1.677l-.009-1.79a1.621,1.621,0,0,1,1.5-1.705h0a1.6,1.6,0,0,1,1.517,1.677l.009,1.791A1.621,1.621,0,0,1,2299.937,1092.928Z" transform="translate(-2290.629 -1087.683)"/><path class="d" d="M2231.447,1093.567h0a1.6,1.6,0,0,1-1.517-1.677l-.009-1.791a1.621,1.621,0,0,1,1.5-1.705h0a1.6,1.6,0,0,1,1.517,1.677l.009,1.791A1.62,1.62,0,0,1,2231.447,1093.567Z" transform="translate(-2229.921 -1088.249)"/></g><g transform="translate(184.351 534.279)"><path class="d" d="M759.048,1088.291a3.024,3.024,0,0,1-2.14-.87,2.806,2.806,0,0,1-.851-1.993l-.046-9.623a2.967,2.967,0,0,1,2.99-2.916l2.406-.022a3.012,3.012,0,0,1,2.169.87,2.805,2.805,0,0,1,.851,1.993l.046,9.623a2.967,2.967,0,0,1-2.99,2.916l-2.406.022Zm2.389-15.188h-.027l-2.406.022a2.731,2.731,0,0,0-2.757,2.679l.046,9.623a2.57,2.57,0,0,0,.78,1.826,2.794,2.794,0,0,0,2,.8l2.406-.022a2.731,2.731,0,0,0,2.757-2.679l-.046-9.624a2.57,2.57,0,0,0-.78-1.826A2.79,2.79,0,0,0,761.437,1073.1Z" transform="translate(-756.012 -1072.867)"/></g><path class="i" d="M471.007,1075.508l-4.786,5.468-3.121.5a5.086,5.086,0,0,0,.665-.6c.032-.035.062-.067.1-.108a36.841,36.841,0,0,1,2.653-2.7,35.445,35.445,0,0,1,3.093-2.51l.018-.013Z" transform="translate(-312.028 -540.929)"/><path class="i" d="M506.6,1076.132l-4.658,5.5,5.952.679,1.294-5.9Z" transform="translate(-346.46 -541.481)"/><path class="i" d="M564.139,1079.75l-.841,5.5,4.205-1.644-.081-3.771Z" transform="translate(-400.842 -544.689)"/><rect class="d" width="10.614" height="5.432" transform="translate(175.469 565.671)"/><rect class="c" width="0.93" height="5.146" transform="translate(178.725 571.086)"/><path class="j" d="M1924.074,800.482s3.094-6.711,10.617-6.024c0,0,10.832-11.227,22.542-1.654,0,0,12.354-2.486,21.55,1.912,6.131,2.932,8.172,6.04,8.172,6.04Z" transform="translate(-1607.013 -286.919)"/><rect class="c" width="0.93" height="5.146" transform="translate(180.819 571.086)"/><path class="c" d="M691.245,1431.106a3.167,3.167,0,1,1,3.163,3.01A3.09,3.09,0,0,1,691.245,1431.106Z" transform="translate(-514.252 -853.457)"/><ellipse class="k" cx="1.912" cy="1.819" rx="1.912" ry="1.819" transform="translate(178.244 575.884)"/><g transform="translate(278.466 572.629)"><path class="i" d="M1584.374,1414.557a4.415,4.415,0,1,1,4.407,4.152A4.285,4.285,0,0,1,1584.374,1414.557Z" transform="translate(-1584.374 -1410.406)"/><path class="k" d="M1599.723,1428.024a2.668,2.668,0,1,1,2.664,2.509A2.59,2.59,0,0,1,1599.723,1428.024Z" transform="translate(-1597.979 -1423.798)"/></g><path class="h" d="M1448.98,1279.274c2.181-1.1,2.4-5.106.36-6.619a12.9,12.9,0,0,0-7.672-2.9c-5.976.138-2.41,11.99-.417,12.051C1442.424,1281.844,1446.076,1280.744,1448.98,1279.274Z" transform="translate(-1176.487 -713.105)"/><path class="i" d="M2623.213,977.694c.208-.345,21.6-9.74,36.338-7.956l-13.065,10.086-22.536.219A1.489,1.489,0,0,1,2623.213,977.694Z" transform="translate(-2226.43 -446.976)"/><g transform="translate(254.944 480.767)"><path class="h" d="M1503.632,601.875s-11.656,34.09-14,39.319-8.189,8.985-8.189,8.985l-.035.017-37.651,19.667s-49.232.823-59.978.67h0c-.974-.015-1.633-.039-1.908-.069-3.3-.379-4.953-1.733-4.444-2.971s74.771-17.44,83-19.164c.078-.017.156-.034.235-.049,8-1.73,8.494-4.557,8.494-4.557l27.594-38.492a4.268,4.268,0,0,1,1.651-1.7A14.593,14.593,0,0,1,1503.632,601.875Z" transform="translate(-1377.339 -601.875)"/><path class="e" d="M1498.4,616.479c-7.371,10.922-27.769,41.051-29.778,43.161-2.16,2.271-68.535,19.561-84.84,23.838h0c-.974-.015-1.633-.039-1.908-.069-3.3-.379-4.953-1.733-4.444-2.971s74.771-17.44,83-19.164,8.728-4.606,8.728-4.606l27.594-38.492A4.268,4.268,0,0,1,1498.4,616.479Z" transform="translate(-1377.339 -614.82)"/><path class="i" d="M2153.7,601.875s-11.656,34.09-14,39.319-8.189,8.985-8.189,8.985l-.035.017a65.463,65.463,0,0,1-20.749-1.917c8-1.73,8.493-4.557,8.493-4.557l27.594-38.492a4.267,4.267,0,0,1,1.651-1.7A14.594,14.594,0,0,1,2153.7,601.875Z" transform="translate(-2027.405 -601.875)"/></g><path class="j" d="M338.01,772.261a7.379,7.379,0,0,1,7.182-4.075s7.327-7.594,15.248-1.119c0,0,8.357-1.681,14.577,1.293,4.147,1.983,5.528,4.086,5.528,4.086Z" transform="translate(-201.151 -265.215)"/><circle class="j" cx="2.591" cy="2.591" r="2.591" transform="translate(210.674 490.946)"/><path class="j" d="M1134.918,730.205s2.934-6.241,9.95-5.548c0,0,10.186-10.4,21.049-1.387,0,0,11.547-2.234,20.1,1.934,5.7,2.779,7.584,5.694,7.584,5.694Z" transform="translate(-907.517 -225.452)"/><path class="j" d="M627.417,858.646s2.584-5.5,8.761-4.885c0,0,8.969-9.159,18.533-1.221,0,0,10.167-1.967,17.7,1.7,5.02,2.447,6.678,5.013,6.678,5.013Z" transform="translate(-457.676 -340.424)"/><path class="e" d="M368.732,1165.583a15.931,15.931,0,0,1-1.64,6.079c-4.153-2.258-6.825-4.717-6.142-7.019.871-2.93,3.184-4.87,5.606-6.367l.051.123S369.172,1160.6,368.732,1165.583Z" transform="translate(-221.389 -614.294)"/><rect class="l" width="341.981" height="0.907" rx="0.454" transform="translate(111.076 580.582)"/><circle class="m" cx="0.135" cy="0.135" r="0.135" transform="translate(145.692 546.891)"/><path class="m" d="M419.56,1215.667a.135.135,0,1,1,.135.135A.135.135,0,0,1,419.56,1215.667Z" transform="translate(-273.435 -665.044)"/><path class="m" d="M419.56,1252.213a.135.135,0,1,1,.135.135A.135.135,0,0,1,419.56,1252.213Z" transform="translate(-273.435 -697.437)"/><path class="m" d="M379.086,1215.667a.135.135,0,1,1,.135.135A.135.135,0,0,1,379.086,1215.667Z" transform="translate(-237.56 -665.044)"/><path class="n" d="M1237.62,1226.219l.091,16.624s-6.081,2.87-15.979,3.287a35.165,35.165,0,0,1-12.5-1.446,12.978,12.978,0,0,1-2.178-.9l-.1-17.427a5.686,5.686,0,0,1,2.166-1.272c7.594-2.742,27.229.586,27.229.586Z" transform="translate(-971.369 -672.549)"/><path class="e" d="M1209.12,1233.535l.107,19.6a12.978,12.978,0,0,1-2.178-.9l-.1-17.427A5.689,5.689,0,0,1,1209.12,1233.535Z" transform="translate(-971.369 -681.001)"/></g><g transform="translate(763.735 445.854)"><path class="o" d="M24.611,0C38.2,0,49.223,2.284,49.223,5.1S38.2,10.2,24.611,10.2,0,7.917,0,5.1,11.019,0,24.611,0Z" transform="translate(207.765 181.919)"/><g transform="translate(209.236 94.278)"><path class="p" d="M247.143,251.927l-.99.422c-1.277.548-3.443,1.483-4.408,1.935-.623.292-1.387.664-2.046,1-.839.417-1.508.764-1.508.764s-.88.216-1.538-1.573a6.4,6.4,0,0,1-.568-2.544,21.485,21.485,0,0,0,4.655-2.608c1.628-1.382,4.363-3.267,4.363-3.267Z" transform="translate(-224.449 -175.821)"/><path class="q" d="M247.143,251.927l-.99.422a7.058,7.058,0,0,0-1.619-2.528c-1.307-1.005-5.072,1.091-6.122,2.6-.669.96.487,1.819,1.286,2.86-.839.417-1.508.764-1.508.764s-.88.216-1.538-1.573a6.4,6.4,0,0,1-.568-2.544,21.485,21.485,0,0,0,4.655-2.608c1.628-1.382,4.363-3.267,4.363-3.267Z" transform="translate(-224.449 -175.821)"/><path class="r" d="M268.419,220.266s3.81,5.209,3.873,8.162-3.789,6-8.711,7.745-6.053,2.559-6.807,2.182-2.7-5.215-2.388-6.158,4.144-2.247,6.409-2.842S268.419,220.266,268.419,220.266Z" transform="translate(-234.265 -161.967)"/><path class="s" d="M265.077,240.159c-.482.206-.985.4-1.5.583-4.921,1.745-6.052,2.559-6.805,2.182s-2.7-5.213-2.388-6.158,4.142-2.247,6.409-2.84c1.2-.317,3.267-2.845,4.951-5.157C264.911,232.413,264.218,237.113,265.077,240.159Z" transform="translate(-234.266 -166.536)"/><path class="t" d="M231.086,261.532a3.938,3.938,0,0,1-.928-1.978c-.031-.977.441-1.949-.8-2.076s-4.939.313-5.256,1.1.177,2.5.7,3.623a10.274,10.274,0,0,1,.528,3.837c-.011.867.606,5.186,1.4,5.81s1.985.9,2.144-1.385-.3-3.9,1.594-5.213,2.565-1.718,1.758-2.365A4.235,4.235,0,0,1,231.086,261.532Z" transform="translate(-217.958 -181.948)"/><path class="u" d="M275.554,264.312c0,.141-5.072,2.136-5.072,2.136a10.567,10.567,0,0,0,0-5.861c-.653-2.644-1.307-4.735-1.925-7.022-.216-.795-.422-1.614-.628-2.488-.794-3.393.251-5.027.251-5.027H275.3s0,.653-.01,1.659c-.01,1.488-.04,3.75-.116,5.8-.05,1.589-.136,3.051-.251,3.936a16.38,16.38,0,0,0,.116,4.147A23.631,23.631,0,0,0,275.554,264.312Z" transform="translate(-241.4 -175.821)"/><path class="p" d="M276.629,272.973c0,.141-5.072,2.136-5.072,2.136a10.567,10.567,0,0,0,0-5.861c-.653-2.644-1.307-4.735-1.925-7.022a8.088,8.088,0,0,0,3.227.487,13.41,13.41,0,0,0,3.393-.543c-.05,1.589-.136,3.051-.251,3.936A22.026,22.026,0,0,0,276.629,272.973Z" transform="translate(-242.475 -184.481)"/><path class="v" d="M275.554,264.312c0,.141-5.072,2.136-5.072,2.136a10.567,10.567,0,0,0,0-5.861c-.653-2.644-1.307-4.735-1.925-7.022-.216-.795-.422-1.614-.628-2.488-.794-3.393.251-5.027.251-5.027H275.3s0,.653-.01,1.659c-2.427.081-4.981.869-4.85,4.122.226,5.509,1.463,10.108,4.6,9.761A23.631,23.631,0,0,0,275.554,264.312Z" transform="translate(-241.4 -175.821)"/><path class="w" d="M259.253,210.5c-.03.161-.065.307-.1.427-.5,1.624-2.84,1.594-4.76,1.211q-.271-.053-.528-.121a11.736,11.736,0,0,1-1.538-.467c-1.634-.623-1.82-3.2-2.136-4.644s-.186-3.584-2.95-5.594-7.67-6.1-9.867-10.741.377-11.189.377-11.189h13.194s.045.407.125,1.035a31.43,31.43,0,0,0,1.2,5.856c.754,1.8,5.087,8.5,6.107,10.515C259.338,198.689,259.816,207.591,259.253,210.5Z" transform="translate(-224.667 -140)"/><path class="p" d="M256.884,212.135q-.271-.053-.528-.121c-.176-1.246-.407-2.633-.7-4.172-1.222-6.4-3.941-8.409-7.087-10.736a25.188,25.188,0,0,1-5.383-4.936c-3.136-4.017-2.076-9.38-.864-12.792h.528c-1.2,3.292-2.317,8.575.729,12.48a24.778,24.778,0,0,0,5.288,4.841c3.1,2.292,6.027,4.453,7.288,11.053C256.467,209.376,256.7,210.833,256.884,212.135Z" transform="translate(-227.159 -140)"/><path class="t" d="M275.6,282.434a3.942,3.942,0,0,1-2.18.14c-.92-.329-1.652-1.123-2.226-.012s-1.515,4.711-.895,5.3,2.387.748,3.626.678a10.276,10.276,0,0,1,3.764.912c.8.327,5.049,1.333,5.921.818s1.561-1.52-.5-2.5-3.741-1.145-4.269-3.39-.661-3.016-1.558-2.5A4.236,4.236,0,0,1,275.6,282.434Z" transform="translate(-242.722 -194.984)"/><path class="v" d="M259.253,210.5c-.03.161-.065.307-.1.427-.5,1.624-2.84,1.594-4.76,1.211q-.271-.053-.528-.121a11.736,11.736,0,0,1-1.538-.467c-1.634-.623-1.82-3.2-2.136-4.644s-.186-3.584-2.95-5.594-7.67-6.1-9.867-10.741.377-11.189.377-11.189h13.194s.045.407.125,1.035c-2.216.236-11.923,1.634-11.576,8.2.392,7.414,6.067,9,9.691,13.32s5.162,10.762,8.494,9.424A7.593,7.593,0,0,0,259.253,210.5Z" transform="translate(-224.667 -140)"/><g transform="translate(31.288 34.478)"><path class="x" d="M286.306,177.081c-.06.156-.125.311-.191.462a6.557,6.557,0,0,1-1.006,1.573,3.671,3.671,0,0,1-2.659,1.463c-.975,0-1.98-.593-2.87-2.051a6.31,6.31,0,0,1-.462-.92c-.06-.155-.121-.317-.171-.472a9,9,0,0,1-.377-3.121,10.2,10.2,0,0,1,.3-2.116,7.108,7.108,0,0,1,1.659-2.136,3.268,3.268,0,0,1,.331-.251,3.852,3.852,0,0,1,1.448-.658c.055-.01.105-.02.161-.025a2.74,2.74,0,0,1,.93,0,3.587,3.587,0,0,1,2.161,1.286,3.54,3.54,0,0,1,.286.372,5.027,5.027,0,0,1,.859,2.222A9.242,9.242,0,0,1,286.306,177.081Z" transform="translate(-278.56 -168.788)"/><path class="y" d="M282.219,177.689c.07,1.131.151,2.086.231,2.89a2.094,2.094,0,0,1-.352-.03,3.752,3.752,0,0,1-2.519-2.021,8.037,8.037,0,0,1-1.01-4.514c.895,2.674,1.659,4.217,2.307,4.805.88.8-.126-3.936.925-8a12.908,12.908,0,0,1,.663-2,3.016,3.016,0,0,1,.473-.04,2.683,2.683,0,0,1,.457.04A22.67,22.67,0,0,0,282.219,177.689Z" transform="translate(-278.559 -168.787)"/><path class="z" d="M285.932,177.689c.07,1.131.151,2.086.231,2.89a2.094,2.094,0,0,1-.352-.03,38,38,0,0,1-.342-5.036,18.955,18.955,0,0,1,1.181-6.725,2.684,2.684,0,0,1,.457.04A22.67,22.67,0,0,0,285.932,177.689Z" transform="translate(-282.271 -168.787)"/><path class="u" d="M283.133,184.95a8.091,8.091,0,0,0-3.735.869c.05.156.111.317.171.472a7.992,7.992,0,0,1,7-.065c.065-.151.13-.306.191-.462A8.134,8.134,0,0,0,283.133,184.95Z" transform="translate(-279.01 -177.471)"/><path class="u" d="M288.127,171.326c-.136.005-.276.005-.422.005-.412,0-.85-.01-1.322-.025a7.857,7.857,0,0,1-3.574-.7,3.262,3.262,0,0,1,.331-.251,8.175,8.175,0,0,0,3.252.578c.518.02,1,.025,1.448.025A3.544,3.544,0,0,1,288.127,171.326Z" transform="translate(-280.842 -169.627)"/></g><path class="aa" d="M280.894,160.031c-.583.271-.251-1.066-.794-1.443s-1.091-.251-1.046-1.3.206-1.633-.251-1.84a2.9,2.9,0,0,1-1.3-1.005c-.206-.422-.332-.674-1.211-.337a9.411,9.411,0,0,0-3.227,2.3c-.377.674-.92.754-1.171,0a2.064,2.064,0,0,1-.08-.774.208.208,0,0,0-.081-.141,1.138,1.138,0,0,0-.3-.171c-.111-.05-.272-.116-.472-.2-1-.427-2.9-1.342-3.634-2.986-.879-1.965-.628-10.636,2.936-11.264.06-.01-.055,1.493-.1,3.147-.045,1.669-.01,3.489.347,4.056a32.314,32.314,0,0,0,3.373,3.7c.518.513.98.945,1.292,1.211a2.689,2.689,0,0,0,.362.276c.5.251,2.513.086,3.267.754s1.086.5,1.589,1.091S281.482,159.759,280.894,160.031Z" transform="translate(-241.005 -119.31)"/><path class="ab" d="M274.017,153.516c-.618.689-1.749,1.282-2.287,1.975a1.138,1.138,0,0,0-.3-.171c-.669-.3-3.227-1.217-4.107-3.187s-.628-10.636,2.936-11.264c.06-.01-.055,1.493-.1,3.147a7.027,7.027,0,0,0-.658,2.885c-.211,4.353-.422,6.489,1.005,7.163S274.847,152.6,274.017,153.516Z" transform="translate(-241.005 -119.31)"/><path class="ac" d="M245.492,120.421c-1.875-.061-7.469-5.263-6.544-6.479a1.052,1.052,0,0,0,.211-.538,2.079,2.079,0,0,0-.091-.915,8.365,8.365,0,0,0-1.337-2.418c-1.3-8.61,9.173-6.137,10.113-4.549.8,1.367-.186,6.022-.483,7.323v.005c-.04.181-.07.292-.075.327a.016.016,0,0,0-.005.01,26.165,26.165,0,0,1,1.046,3.312A2.858,2.858,0,0,1,245.492,120.421Z" transform="translate(-225.276 -99.465)"/><path class="q" d="M248.489,131.792v.005c-.211.794-1.844,2.176-1.844,2.176a.224.224,0,0,0,.005.04,15.987,15.987,0,0,1-.086,4.232c-.256,1.2-.653,6.047-1.02,9.153a9.892,9.892,0,0,1-.488,2.659c-.462.417-4.443.965-9.47.714s-3.9-.045-4.6-1.845-2.513-8.836-3.478-10.555a14.439,14.439,0,0,1-.9-3.353c-.673-3.489-1.236-8.249-1.236-8.249a7.061,7.061,0,0,1,3.981-1.885,14.679,14.679,0,0,1,3.016-.3,27.639,27.639,0,0,0,5.78,3.016c2.679.88,2.468.422,2.553-.795s0-2.975,0-2.975,4.524-.543,5.991,1.091S248.7,130.983,248.489,131.792Z" transform="translate(-218.694 -110.112)"/><path class="ad" d="M246.98,156.6a9.892,9.892,0,0,1-.488,2.659c-.462.417-4.443.965-9.47.714s-3.9-.045-4.6-1.845-2.513-8.836-3.478-10.555a14.441,14.441,0,0,1-.9-3.353,8.42,8.42,0,0,1,4.906-3.348,5.633,5.633,0,0,1-1,5.62c-2.252,2.92,1.217,9.088,6.017,9.419s5.836,2.051,8.4.749A1.013,1.013,0,0,1,246.98,156.6Z" transform="translate(-220.129 -119.311)"/><path class="aa" d="M248.967,123.115a.016.016,0,0,0-.005.01s.252,3.312-1.789,3.016c-1.267-.181-4.2-1.623-6.333-2.8a2.079,2.079,0,0,0-.091-.915A15.29,15.29,0,0,0,244.73,124a10.2,10.2,0,0,0,3.76-1.2c.417-.242.538-.161.553-.02v.005A.907.907,0,0,1,248.967,123.115Z" transform="translate(-226.957 -109.401)"/><path class="ac" d="M231.145,162.187c-.91-.3-2.725-.855-2.136-.4s.4,1.186-.708.568-2.031.347-2.75-.181a5.97,5.97,0,0,0-1.236-.643c-.206-.081-.412-.156-.618-.236-.251-.09-.5-.186-.729-.281a12.5,12.5,0,0,0-1.91-.337c-2.1-.3-5.318-.754-7.067-1.819-2.528-1.543-3.8-3.111-2.568-5.83s4.237-7.771,4.237-7.771,4.85-2.694,6.353.538a10.291,10.291,0,0,1-.277,1.367,16.322,16.322,0,0,1-2.055,4.639c-2.036,3.162-2.82,2.855-1.378,3.946a21.1,21.1,0,0,0,3.936,2.186,8.084,8.084,0,0,0,2.116.649c.025,0,.05.005.075.005,1.322.09,3.644.09,4.141.171.513.081,3.619,1.955,3.855,2.734S232.054,162.484,231.145,162.187Z" transform="translate(-210.944 -121.1)"/><path class="aa" d="M224.314,161.529c-.458-.181-.93-.342-1.347-.518-.83-.347-6.444-.613-8.978-2.156s-3.8-3.111-2.568-5.83,4.237-7.771,4.237-7.771,4.85-2.694,6.353.538a10.291,10.291,0,0,1-.277,1.367c-1.553-.92-4.051-2.1-5.5-.216-2.177,2.835-4.107,5.464-2.6,6.454s1.93,1.658.754,1.658-2.679.5-.583,2.011S223.927,159.794,224.314,161.529Z" transform="translate(-210.944 -121.1)"/><path class="p" d="M227.385,138.179c-.377.714-.714.794-1.131.211a3.185,3.185,0,0,0-2.307-1.679,9.8,9.8,0,0,0-3.77.171c-.543.04-.794-4.82,2.222-7.289q.158-.128.317-.241c3.041-1.453,5.092,1.975,5.63,3.755C229.019,135.328,227.762,137.465,227.385,138.179Z" transform="translate(-215.725 -112.934)"/><path class="p" d="M272.9,138.511v.005c-.211.794-1.844,2.176-1.844,2.176l-.251-4.438S271.158,139.4,272.9,138.511Z" transform="translate(-243.106 -116.83)"/><path class="u" d="M248.313,105.584a2.413,2.413,0,0,1-.472,1.166,2.089,2.089,0,0,1-.819.543c-.07.03-.628.272-.684.221a3.716,3.716,0,0,1-.065-1.664q.083-.739.136-1.478c.061-.764.1-1.528.116-2.3a.866.866,0,0,0-.849-1.04,17.174,17.174,0,0,0-2.905-.513,12.527,12.527,0,0,0-1.844-.035,10.691,10.691,0,0,0-1.649.206,2.841,2.841,0,0,0-1.97,1.126,2.58,2.58,0,0,0-.2,1.749,7.481,7.481,0,0,0,.367,1.3c.146.412.316.814.492,1.211a8.69,8.69,0,0,1,.814,1.789.635.635,0,0,1-.005.342c-.176.447-1.221-.211-1.488-.533a4.4,4.4,0,0,1-.729-1.5,13.517,13.517,0,0,1-.719-6.831,6.41,6.41,0,0,1,2.7-4.237,5.853,5.853,0,0,1,2.7-.814,8.842,8.842,0,0,1,2.086.126,12.335,12.335,0,0,1,1.372.317,4.621,4.621,0,0,1,2.257,1.236,4.68,4.68,0,0,1,.905,2.116,27.5,27.5,0,0,1,.543,4.393A13.064,13.064,0,0,1,248.313,105.584Z" transform="translate(-224.222 -94.278)"/><path class="p" d="M240.792,139.494s1.744,7.774,7.568,9.056,6.016-1.382,5.317-4.528-.769-6.493-2.619-5.071-4.564,1.3-6.851-.337S239.7,136.453,240.792,139.494Z" transform="translate(-226.827 -117.392)"/><path class="p" d="M248.613,100.523a12.527,12.527,0,0,0-1.844-.035,13.007,13.007,0,0,1-.131-3.991,17.945,17.945,0,0,1,.453-2.2,8.842,8.842,0,0,1,2.086.126,32.74,32.74,0,0,0-.573,4.845C248.6,99.769,248.6,100.181,248.613,100.523Z" transform="translate(-230.066 -94.278)"/><path class="ae" d="M248.1,106.675c-.141-.573-1.589-.865-3.1-1.011a2.372,2.372,0,0,0-2.02-.955,2.43,2.43,0,0,0-1.966.869c-1.312.106-2.483.483-2.94,1.745a3.8,3.8,0,0,0,.327,3.166l.256-.015a7.481,7.481,0,0,1-.367-1.3,2.58,2.58,0,0,1,.2-1.749,2.841,2.841,0,0,1,1.97-1.126,2.986,2.986,0,0,1,.3-.05,12.994,12.994,0,0,1,4.453.04c.553.091,1.105.211,1.649.352a.866.866,0,0,1,.849,1.04c-.02.769-.055,1.533-.116,2.3l.508-.03A14.815,14.815,0,0,0,248.1,106.675Z" transform="translate(-225.41 -99.882)"/><path class="w" d="M238.334,116l.7,2.665a.251.251,0,0,0,.152.17l4.429,1.724a.253.253,0,0,0,.2-.008l4.427-2.12a.251.251,0,0,0,.134-.161l.778-2.879a.251.251,0,0,0-.257-.317l-10.338.61A.252.252,0,0,0,238.334,116Zm1.218,2.109-.443-1.458a.251.251,0,0,1,.24-.324h1.779a.251.251,0,0,1,.251.234l.142,2.026a.251.251,0,0,1-.341.252l-1.477-.568A.252.252,0,0,1,239.552,118.106Zm5.425,1.051-1.132.558a.25.25,0,0,1-.194.012l-1.1-.383a.251.251,0,0,1-.168-.222l-.161-2.631a.251.251,0,0,1,.233-.266l2.388-.169a.251.251,0,0,1,.269.251v2.625A.251.251,0,0,1,244.977,119.157Zm2.631-1.093-1.394.544a.252.252,0,0,1-.343-.234v-2.1a.251.251,0,0,1,.237-.251l1.847-.107a.251.251,0,0,1,.257.317l-.453,1.662A.253.253,0,0,1,247.608,118.064Z" transform="translate(-225.655 -105.45)"/><path class="ad" d="M234.235,128.3a3.588,3.588,0,0,1,2.223-.708.377.377,0,0,0,0-.754,4.27,4.27,0,0,0-2.6.812c-.389.282-.013.936.38.651Z" transform="translate(-223.165 -111.773)"/><path class="ad" d="M260.633,125.946a3.947,3.947,0,0,1,2.187-.149c.473.1.676-.624.2-.727a4.7,4.7,0,0,0-2.589.149c-.455.16-.259.888.2.727Z" transform="translate(-237.394 -110.76)"/><path class="u" d="M236.171,174.524a11.023,11.023,0,0,0-.734,2.709c-.251-.09-.5-.186-.729-.281a12.492,12.492,0,0,0-1.91-.337,14.409,14.409,0,0,1,1.181-2.744,8.082,8.082,0,0,0,2.116.649C236.12,174.519,236.145,174.524,236.171,174.524Z" transform="translate(-222.685 -137.04)"/><path class="u" d="M279.889,165.653a7.039,7.039,0,0,0-3.363,2.644.208.208,0,0,0-.081-.141,1.138,1.138,0,0,0-.3-.171c-.111-.05-.272-.116-.472-.2.1-.186.216-.392.347-.608a8.547,8.547,0,0,1,2.579-2.734C279.115,164.955,279.577,165.387,279.889,165.653Z" transform="translate(-245.72 -131.975)"/></g></g><g transform="translate(520.808 441.008)"><path class="o" d="M23.474,0C36.439,0,46.949,2.28,46.949,5.092s-10.51,5.092-23.474,5.092S0,7.9,0,5.092,10.51,0,23.474,0Z" transform="translate(346.961 185.22)"/><g transform="translate(340.192 100.686)"><path class="u" d="M406.8,236.671s.747.608,1.64,1.365c1.045.882,2.294,1.959,2.79,2.492.144.158.473.474.921.9,1.556,1.469,4.557,4.213,6.453,5.939l1.707,1.548,3.292-2.658a28.337,28.337,0,0,0-2.664-2.939c-1.337-1.235-2.935-4.119-4.378-5.787a.227.227,0,0,0-.036-.043A48.311,48.311,0,0,0,411,232.85Z" transform="translate(-376.033 -171.796)"/><path class="p" d="M418.388,246.876c2.381,2.25,8.16,7.487,8.16,7.487l3.292-2.658a28.335,28.335,0,0,0-2.664-2.939c-1.337-1.235-2.935-4.119-4.378-5.787a5.432,5.432,0,0,1-2.027,2.54A20.359,20.359,0,0,1,418.388,246.876Z" transform="translate(-382.265 -177.246)"/><path class="v" d="M406.8,236.671s.747.608,1.64,1.365c1.482-.95,3.643-2.24,4.863-1.593,1.938,1.025,9.267,8.763,7.426,9.343a3.672,3.672,0,0,0-2.125,1.579l1.707,1.548,3.292-2.658a28.337,28.337,0,0,0-2.664-2.939c-1.337-1.235-2.935-4.119-4.378-5.787a.227.227,0,0,0-.036-.043A48.311,48.311,0,0,0,411,232.85Z" transform="translate(-376.033 -171.796)"/><path class="t" d="M433.985,262.1a2.851,2.851,0,0,0,1.559-.827c.447-.638.512-1.541,1.508-.96s3.6,2.855,3.495,3.555-1.216,1.577-2.1,2.054a7.015,7.015,0,0,0-2.063,2.287c-.368.587-2.708,3.149-3.582,3.139s-1.89-.463-1.02-2.076,1.92-2.451,1.056-4.346-1.194-2.525-.3-2.526A3.3,3.3,0,0,0,433.985,262.1Z" transform="translate(-389.295 -186.469)"/><path class="r" d="M371.106,184.411a20.23,20.23,0,0,0,3.036,9.318c.17.271.346.547.532.818,3.488,5.128,6.484,9.73,8.154,11.486s6.358,6.272,7.778,5.6c1.4-.657,4.034-3.277,3.533-4.873-.005-.02-.015-.04-.02-.06-.582-1.591-5-5.685-5.053-6.438-.02-.366-.678-2.93-1.345-5.465-.246-.933-.492-1.862-.708-2.679-.412-1.546-.723-2.685-.723-2.685S373.515,178.926,371.106,184.411Z" transform="translate(-356.825 -144.88)"/><path class="v" d="M377.678,203.517c.17.271.346.547.532.818,3.488,5.128,6.484,9.73,8.154,11.486s6.358,6.272,7.778,5.6c1.4-.657,4.034-3.277,3.533-4.873a28.308,28.308,0,0,0-2.875,2.233c-2.855,2.293-7.1-3.131-8.611-7.311-1.024-2.835,2.619-5.479,5.068-6.885l-.708-2.679A14.184,14.184,0,0,0,377.678,203.517Z" transform="translate(-360.361 -154.669)"/><path class="ac" d="M409.019,146.064c.045,1.189.075,2.3.075,3.061,0,.236-.005.437-.015.6v.015a1.184,1.184,0,0,1-.055.4,10.9,10.9,0,0,1-1.631,1.651c-.5.356-.668.607-.166,1.36s2.469,3.011,3.513,1.841.587-3.056.964-4.014c.035-.09.085-.271.15-.527.191-.738.482-2.1.763-3.693.662-3.709,1.29-8.651.467-9.79-1.039-1.44-7.105-6.027-9.986-7.637a2.946,2.946,0,0,0-1.43-.557c-1,.291-3.558,4.516-3.558,4.516a46.786,46.786,0,0,0,6.418,3.879,10.574,10.574,0,0,1,4.12,2.725C408.718,140.108,408.914,143.3,409.019,146.064Z" transform="translate(-371.354 -115.792)"/><path class="aa" d="M398.11,133.288a46.786,46.786,0,0,0,6.418,3.879,10.574,10.574,0,0,1,4.12,2.725c.07.216.266,3.407.371,6.172.14.01.3.02.457.035a24.366,24.366,0,0,0,.01-5.385c-.5-2.855-3.6-4.586-6.272-5.921-1.862-.934-.833-3.769-.115-5.464a2.946,2.946,0,0,0-1.43-.557C400.664,129.063,398.11,133.288,398.11,133.288Z" transform="translate(-371.354 -115.792)"/><path class="u" d="M421.725,166.216c0,.035.005.07.005.105.01.246.015.482.025.717v.05c.005.14.01.281.015.416.02.683.03,1.295.03,1.772.02.005.04.005.06.01a4.4,4.4,0,0,1,1.711.587,8.012,8.012,0,0,1,.989.728c.191-.738.482-2.1.763-3.693a9.784,9.784,0,0,0-1.335-.382,15.412,15.412,0,0,0-1.806-.276C422.021,166.236,421.865,166.226,421.725,166.216Z" transform="translate(-384.06 -135.944)"/><path class="ac" d="M364.984,110.526s.819,5.185.369,7.9-2.834,5.395-3.587,4.935-5.968-4.5-5.771-5.622-.962-4.372.167-5.836S364.062,109.48,364.984,110.526Z" transform="translate(-348.515 -105.744)"/><path class="aa" d="M367.592,124.629s-2.617,2.757-3.461,2.86a29.794,29.794,0,0,1-4.307-.537s3.512,1.907,4.767,1.856S367.592,124.629,367.592,124.629Z" transform="translate(-350.755 -113.568)"/><path class="u" d="M366.066,234.86s.4,1.049.863,2.333c.542,1.5,1.174,3.317,1.355,4.15.05.246.2.758.4,1.45.7,2.4,2.118,6.93,3.016,9.785.481,1.52.813,2.564.813,2.564l5.349-1.049a30.22,30.22,0,0,0-.918-4.556c-.622-2.032-.422-5.956-.868-8.505a.254.254,0,0,0-.01-.066,50.649,50.649,0,0,0-2.885-7.9Z" transform="translate(-354.113 -171.911)"/><path class="p" d="M371.725,252.074c1.074,3.673,3.829,12.35,3.829,12.35l5.349-1.049a30.222,30.222,0,0,0-.918-4.556c-.622-2.032-.422-5.956-.868-8.505a7.818,7.818,0,0,1-3.9,1.606A27.805,27.805,0,0,1,371.725,252.074Z" transform="translate(-357.158 -181.192)"/><path class="v" d="M366.066,234.86s.4,1.049.863,2.333c2.243-.211,5.45-.417,6.338.928,1.415,2.133,4.175,14.3,1.792,13.925a5.132,5.132,0,0,0-3.362.532c.481,1.52.813,2.564.813,2.564l5.349-1.049a30.22,30.22,0,0,0-.918-4.556c-.622-2.032-.422-5.956-.868-8.505a.254.254,0,0,0-.01-.066,50.649,50.649,0,0,0-2.885-7.9Z" transform="translate(-354.113 -171.911)"/><path class="aa" d="M343.259,147.35s1.421,10.779,2.843,12.7,3.764,1.338,4.265,0-.581-10.622-.581-10.622S347.273,145.771,343.259,147.35Z" transform="translate(-341.842 -125.581)"/><path class="w" d="M361.042,205.8c.943.943,2.885.5,4.586-.236.161-.065.321-.14.477-.216a12.927,12.927,0,0,0,2.213-1.3c1.385-1.064.066-2.635.5-4.767s5.585-4.2,9.323-6.648a8.025,8.025,0,0,0,2.72-10.287c-1.566-3.387-3.322-4.451-3.322-4.451l-.722.331-.472.211-8.716,3.974a13.147,13.147,0,0,1-1.38,3.131c-.692.883-8.22,9.85-8.781,11.421S359.476,204.238,361.042,205.8Z" transform="translate(-349.445 -142.227)"/><path class="p" d="M374.467,205.953c.161-.065.321-.14.477-.216-.717-2.368-1.089-5.324.527-7.226a20.069,20.069,0,0,1,5.023-3.829c2.564-1.566,5.214-3.187,6.709-6.067,1.892-3.628-.2-7.868-1.546-10.006l-.472.211c1.285,2.037,3.342,6.167,1.571,9.564-1.43,2.755-4.02,4.341-6.523,5.871a20.875,20.875,0,0,0-5.149,3.929C373.3,200.292,373.7,203.459,374.467,205.953Z" transform="translate(-358.284 -142.613)"/><path class="q" d="M341.1,133.664c.346.692,4.988.311,5.209.376a63.994,63.994,0,0,1,2.414,7.527c.878,3.106,5.394,10.006,5.55,10.257a.28.28,0,0,0,.206.151c.311.07,1.149-.08,3.9-.808a77.951,77.951,0,0,0,10.473-3.924c.346-.251-1.721-5.741-1.786-9.093A53.12,53.12,0,0,0,365.4,128.8a.015.015,0,0,1,.01.005c.126.09,1.355.918,2.218.562.909-.376,2.319-3.232,2.725-4.08s.943-1.38.567-1.972-3.076-3.046-4.611-3.393a12.289,12.289,0,0,0-5.359.632,18.732,18.732,0,0,1-3.673.562c-.286.025-1.631,3.608-1.786,4.235s-.251,1.786-1.536,1.726-3.794-2.137-4.486-2.89a2.082,2.082,0,0,0-2.037-.783,7.627,7.627,0,0,1-1.756.627,9.493,9.493,0,0,0-4.832,2.855C339.4,128.706,340.749,132.971,341.1,133.664Z" transform="translate(-340.192 -110.984)"/><path class="ad" d="M371.106,161.178c.311.07,1.149-.08,3.9-.808a77.951,77.951,0,0,0,10.473-3.924c.346-.251-1.721-5.741-1.786-9.093A53.12,53.12,0,0,0,382.035,138l-2.007-1.074s3.347,6.187,1.8,11.5-8.234,8.154-6.353,7.778,6.273-5.811,5.52-3.176C380.264,155.572,376.159,160.887,371.106,161.178Z" transform="translate(-356.825 -120.187)"/><path class="p" d="M370.906,134.759s2.927,6.774-3.346,10.7-9.033-2.174-10.036-5.854,2.258-3.011,4.516-2.342c1.489.441,2.429-.877,3.332-1.815a5.886,5.886,0,0,1,3.94-1.777C370.1,133.687,370.464,134.2,370.906,134.759Z" transform="translate(-349.417 -118.436)"/><path class="ac" d="M345.376,160.187c.035.532-.06.717-.025,2.123,0,.231.02.477.05.743.01.085.02.176.03.266a12.228,12.228,0,0,0,1.154,4.24c.587.838,1.862.692,3.2-.085s1.445-3.884,1.445-3.884-.07.773-.4,1.029-.07.075-.416-.3a13.944,13.944,0,0,1-1.069-2.574,19.681,19.681,0,0,1-.647-2.108.9.9,0,0,1-.01-.11v-.005c-.04-.462.2-.326.532-1.726a3.057,3.057,0,0,0-.562-2.885,2.9,2.9,0,0,0-3.181.316c-1.129.918-.682,1.38-.833,2.509-.115.848.291,1.16.542,1.611a1.364,1.364,0,0,1,.166.522A2.868,2.868,0,0,1,345.376,160.187Z" transform="translate(-342.576 -129.679)"/><path class="u" d="M346.19,168.206c0,.231.02.477.05.743a1.219,1.219,0,0,0,.136.01,5.76,5.76,0,0,0,1.61-.105,4.46,4.46,0,0,0,2.2-1.214,19.693,19.693,0,0,1-.647-2.108s-.773.964-1.571.964a5.789,5.789,0,0,1-1.751-.412C346.25,166.615,346.155,166.8,346.19,168.206Z" transform="translate(-343.415 -135.575)"/><path class="t" d="M373.289,276.97a3.835,3.835,0,0,0,2.245-.039c.912-.436,1.588-1.36,2.278-.207s1.987,4.972,1.407,5.659-2.374,1.02-3.649,1.052a10.082,10.082,0,0,0-3.768,1.317c-.792.425-5.045,1.885-5.986,1.4s-1.738-1.51.285-2.754,3.723-1.568,4.056-4.046.4-3.325,1.364-2.847A4.184,4.184,0,0,0,373.289,276.97Z" transform="translate(-353.453 -195.102)"/><path class="u" d="M351.249,108.031c.657,2.945,2.88,6.363,3.478,6.523s1.054-.03.6-.662a12.68,12.68,0,0,1-.973-1.907c-.517-1.225-.968-2.67-.657-3.282.532-1.049,4.486-2.554,6.368-2.524s1.882.221,2.228,1.661a8.719,8.719,0,0,1,.186,1.6,22.813,22.813,0,0,1-.085,3.056.819.819,0,0,0,1.154-.482c.341-.883-.221-6.588-1.29-8.5a5.92,5.92,0,0,0-5.61-2.81,6.97,6.97,0,0,0-1.571.3,5.42,5.42,0,0,0-.707.271A5.661,5.661,0,0,0,351.249,108.031Z" transform="translate(-346.045 -100.686)"/><path class="w" d="M365.305,118.056l-9.221,2.744a.251.251,0,0,0-.142.371l1.538,2.517a.251.251,0,0,0,.2.119l4.638.32a.25.25,0,0,0,.184-.063l3.135-2.8a.25.25,0,0,0,.084-.2l-.091-2.779A.25.25,0,0,0,365.305,118.056Zm-.277,2.827-1.032.894a.251.251,0,0,1-.407-.128l-.5-1.963a.251.251,0,0,1,.176-.3l1.533-.428a.251.251,0,0,1,.318.242v1.5A.251.251,0,0,1,365.029,120.883Zm-3.122,2.524-1.016-.131a.252.252,0,0,1-.2-.155l-.929-2.3a.251.251,0,0,1,.153-.332l2.182-.727a.251.251,0,0,1,.323.18l.575,2.392a.251.251,0,0,1-.072.241l-.811.762A.249.249,0,0,1,361.906,123.407Zm-4.058-.28-.944-1.306a.251.251,0,0,1,.118-.383l1.67-.6a.25.25,0,0,1,.321.15l.691,1.9a.251.251,0,0,1-.233.337l-1.417.015A.251.251,0,0,1,357.848,123.127Z" transform="translate(-348.646 -110.026)"/><path class="ae" d="M355.322,114.558a10.663,10.663,0,0,0,.929,2.79l.386-.121c-.517-1.225-.968-2.67-.657-3.282a5.02,5.02,0,0,1,2.268-1.5,14.735,14.735,0,0,1,3.021-.923,5.86,5.86,0,0,1,1.079-.1c1.882.03,1.882.221,2.228,1.661a8.724,8.724,0,0,1,.186,1.6l.407-.126s.126-3.2-1.536-3.638a5.85,5.85,0,0,0-2.624-.035,1.505,1.505,0,0,0-.873-.431,2.242,2.242,0,0,0-.733.015,2.037,2.037,0,0,0-1,.492,1.132,1.132,0,0,0-.412.928C356.311,112.661,355.292,113.705,355.322,114.558Z" transform="translate(-348.333 -105.929)"/><path class="p" d="M358.2,101.3a45.478,45.478,0,0,0,1.751,4.441,2.037,2.037,0,0,1,1-.492,2.242,2.242,0,0,1,.733-.015c-.291-.738-.692-1.817-.978-2.8a6.367,6.367,0,0,1-.226-1.711,6.97,6.97,0,0,0-1.571.3A5.422,5.422,0,0,0,358.2,101.3Z" transform="translate(-349.882 -100.708)"/><path class="w" d="M421.725,166.216c0,.035.005.07.005.105.01.246.02.482.025.717v.05c.01.14.01.281.015.416.02.683.03,1.295.03,1.772,0,.236-.005.437-.015.6.02-.155.045-.356.075-.587.1-.748.221-1.847.322-3.036C422.021,166.236,421.865,166.226,421.725,166.216Z" transform="translate(-384.06 -135.944)"/></g></g></g></svg>